# xmcd
#
# Track frame offsets:
#	150
#	13247
#	26472
#	43822
#	55697
#	70407
#	88910
#	108555
#	121447
#	136985
#	148235
#	165147
#	180447
#	192997
#
# Disc length: 2732 seconds
#
# Revision: 1
# Processed by: cddbd v1.5.1PL0 Copyright (c) Steve Scherf et al.
# Submitted via: audiograbber 1.83.01
#
DISCID=c50aaa0e
DTITLE=Stringin' Along - No Strings Attached
DYEAR=2000
DGENRE=Country
TTITLE0=Leavin' Louisiana
TTITLE1=It Ain't Love
TTITLE2=You Ain't Goin Nowhere
TTITLE3=Till The End Of The World
TTITLE4=Low and Lonely
TTITLE5=Would You Notice?
TTITLE6=Amie
TTITLE7=Minor Swing
TTITLE8=Paper To Write On
TTITLE9=I'm An Old Cowhand
TTITLE10=True Love Never Dies
TTITLE11=Graveyard Shift
TTITLE12=Ain't Misbehavin'
TTITLE13=Morning Sky
EXTD=
EXTT0=
EXTT1=
EXTT2=
EXTT3=
EXTT4=
EXTT5=
EXTT6=
EXTT7=
EXTT8=
EXTT9=
EXTT10=
EXTT11=
EXTT12=
EXTT13=
PLAYORDER=
